<svg xmlns="http://www.w3.org/2000/svg" viewBox="0 0 1200 900" role="img">
  <defs>
    <linearGradient id="wall" x1="0" x2="1" y1="0" y2="1">
      <stop offset="0" stop-color="#dff2ec"/>
      <stop offset="1" stop-color="#f8dfcc"/>
    </linearGradient>
    <linearGradient id="table" x1="0" x2="1">
      <stop offset="0" stop-color="#23312e"/>
      <stop offset="1" stop-color="#396a62"/>
    </linearGradient>
    <linearGradient id="printA" x1="0" x2="1" y1="0" y2="1">
      <stop offset="0" stop-color="#ff9f78"/>
      <stop offset="1" stop-color="#d85842"/>
    </linearGradient>
    <linearGradient id="printB" x1="0" x2="1" y1="0" y2="1">
      <stop offset="0" stop-color="#7ed9c6"/>
      <stop offset="1" stop-color="#287264"/>
    </linearGradient>
    <filter id="shadow" x="-20%" y="-20%" width="140%" height="140%">
      <feDropShadow dx="0" dy="18" stdDeviation="18" flood-color="#17211f" flood-opacity=".2"/>
    </filter>
  </defs>
  <rect width="1200" height="900" fill="url(#wall)"/>
  <path d="M0 650c176-58 330-84 488-76 250 13 418 102 712 26v300H0z" fill="url(#table)"/>
  <g filter="url(#shadow)">
    <path d="M170 522h240l32 210H138z" fill="#151f1d"/>
    <rect x="202" y="296" width="176" height="234" rx="18" fill="#253632"/>
    <path d="M230 335h120v142H230z" fill="#c8f6e4"/>
    <path d="M250 362h80v88h-80z" fill="#17211f"/>
    <path d="M180 524h220v34H180z" fill="#ffcf66"/>
    <path d="M226 590h126" stroke="#51635e" stroke-width="12" stroke-linecap="round"/>
    <path d="M226 638h126" stroke="#51635e" stroke-width="12" stroke-linecap="round"/>
  </g>
  <g filter="url(#shadow)">
    <path d="M558 378c84 0 152 68 152 152v158H406V530c0-84 68-152 152-152z" fill="url(#printA)"/>
    <path d="M454 540h208M454 584h208M454 628h208" stroke="#ffcfaa" stroke-width="14" stroke-linecap="round" opacity=".7"/>
    <rect x="486" y="486" width="144" height="202" rx="72" fill="#fff6ec" opacity=".24"/>
  </g>
  <g filter="url(#shadow)">
    <path d="M784 432h244l-30 252H814z" fill="url(#printB)"/>
    <path d="M822 480c42 26 88 26 130 0 18 42 18 86 0 128-42-26-88-26-130 0-18-42-18-86 0-128z" fill="#d8fff1" opacity=".35"/>
    <path d="M823 506h148M817 552h160M823 598h148" stroke="#f6fffb" stroke-width="12" stroke-linecap="round" opacity=".5"/>
  </g>
  <g fill="#17211f" opacity=".22">
    <circle cx="1042" cy="318" r="15"/>
    <circle cx="86" cy="210" r="10"/>
    <circle cx="962" cy="164" r="8"/>
    <circle cx="522" cy="186" r="12"/>
  </g>
</svg>
